<svg xmlns="http://www.w3.org/2000/svg" xmlns:xlink="http://www.w3.org/1999/xlink" viewBox="0 0 12.671 21.728">
  <defs>
    <style>
      .cls-1 {
        clip-path: url(#clip-path);
      }
    </style>
    <clipPath id="clip-path">
      <path id="Path_38" data-name="Path 38" d="M0-94.782H12.671V-116.51H0Z" transform="translate(0 116.51)"/>
    </clipPath>
  </defs>
  <g id="Group_165" data-name="Group 165" transform="translate(12.671 -94.782) rotate(180)">
    <g id="Group_48" data-name="Group 48" class="cls-1" transform="translate(0 -116.51)">
      <g id="Group_47" data-name="Group 47" transform="translate(0 0)">
        <path fill="#fff" id="Path_37" data-name="Path 37" d="M-54.324-45.207-64.469-55.352a.69.69,0,0,0-.5-.218.689.689,0,0,0-.5.218l-1.089,1.089a.689.689,0,0,0-.218.5.688.688,0,0,0,.218.5L-58-44.706l-8.556,8.556a.689.689,0,0,0-.218.5.688.688,0,0,0,.218.5l1.089,1.089a.687.687,0,0,0,.5.218.689.689,0,0,0,.5-.218l10.145-10.145a.689.689,0,0,0,.218-.5.69.69,0,0,0-.218-.5" transform="translate(66.777 55.57)"/>
      </g>
    </g>
  </g>
</svg>
