<svg xmlns="http://www.w3.org/2000/svg" xmlns:xlink="http://www.w3.org/1999/xlink" viewBox="0 0 16.548 9.65">
  <defs>
    <style>
      .cls-1 {
        clip-path: url(#clip-path);
      }
    </style>
    <clipPath id="clip-path">
      <path id="Path_38" data-name="Path 38" d="M0-99.962H9.65V-116.51H0Z" transform="translate(0 116.51)"/>
    </clipPath>
  </defs>
  <g id="Group_155" data-name="Group 155" transform="translate(-99.961) rotate(90)">
    <g id="Group_48" data-name="Group 48" class="cls-1" transform="translate(0 -116.51)">
      <g id="Group_47" data-name="Group 47" transform="translate(0 0)">
        <path id="Path_37" data-name="Path 37" d="M-57.293-47.677-65.019-55.4a.526.526,0,0,0-.381-.166.524.524,0,0,0-.381.166l-.829.829a.525.525,0,0,0-.166.381.524.524,0,0,0,.166.381l6.516,6.516-6.516,6.516a.525.525,0,0,0-.166.381.524.524,0,0,0,.166.381l.829.829a.523.523,0,0,0,.381.166.525.525,0,0,0,.381-.166l7.727-7.727a.524.524,0,0,0,.166-.381.525.525,0,0,0-.166-.381" transform="translate(66.777 55.57)"/>
      </g>
    </g>
  </g>
</svg>
