<svg xmlns="http://www.w3.org/2000/svg" xml:space="preserve" id="Layer_1" x="0" y="0" style="enable-background:new 0 0 66.4 69.7" version="1.1" viewBox="0 0 66.4 69.7"><style>.st0{fill:#292828}.st1{fill:#272727}.st2{fill:#282828}.st4{fill:#ed3030}.st6{fill:#060606}.st7{fill:#090909}</style><path d="m26.2 50.4-1.5.9c-1.1.6-2.4 1-3.7 1.2-.8.1-1.7.2-2.5.2-2.4.1-4.9.1-7.3.1-1.3 0-2.5 0-3.8-.1-1.2 0-2.5 0-3.7-.1h-.2c-.2 0-.3-.1-.3-.3.1-.4.2-.7.2-1.1.3-1.2.5-2.5.8-3.7.1-.4.1-.4.5-.4h4.1c1.2 0 2.4 0 3.7.1 1.7 0 3.5.1 5.2 0 1.3 0 2.5-.1 3.8-.4.4-.1.7-.2 1.1-.4.6-.3 1.1-.7 1.5-1.3.7-1.1 1.1-2.4 1.5-3.6.8-2.4 1.3-4.9 1.8-7.4.7-3.3 1.4-6.6 2-10 0-.1 0-.2.1-.3.1-.3 0-.5-.1-.8-1.4-2.4-2.7-4.8-4.1-7.3-.3-.6-.7-1.2-1-1.8-.2-.3-.4-.4-.7-.4H12c.1-.1.1-.2.2-.3 1-1.6 2-3.2 3.1-4.9.2-.2.3-.3.6-.3h4.5c.1 0 .2 0 .3-.1-.1-.1-.1-.2-.2-.3-.4-.6-.8-1.1-1.1-1.7-.2-.3-.4-.6-.3-.9 0-.3.2-.6.5-.7.3-.1.4-.2.3-.5 0-.2-.1-.3.1-.5.2-.1.3-.1.5 0s.4.3.6.4c.3.3.6.5.9.8.1.1.2.1.4.2 0-.2 0-.3.1-.4 0-.2.1-.4.2-.6.2-.5.7-.6 1.2-.4.1.1.2.1.4.2 0-.2 0-.3-.1-.4-.1-.4-.2-.8-.3-1.1-.1-.4-.1-.8-.1-1.1 0-.3.4-.5.6-.3.1.1.2.2.4.3 0-.1.1-.1.1-.1.2-.4.3-.5.7-.5.3 0 .6.1.9.2.4.1.4.1.5-.2.1-.3.4-.3.7-.2.1.1.3.2.4.3.5.6 1 1.2 1.5 1.9 0 0 0 .1.1.1.3.1.4.4.5.7.4.6.7 1.1 1.2 1.7.7.9 1.4 1.9 2.1 2.8 0 0 0 .1.1.1.1.4.3.4.7.4h4.1c.4 0 .5.1.4.5-.4 1.8-.7 3.5-1.1 5.3-.1.5-.1 1 .2 1.4.3.4.5.9.8 1.3.2.3.3.5.6.7.1.1.2.2.2.4.1.3.2.5.2.8 0 .1.1.2.1.4.1.4.2.7.5.9.2.2.3.5.4.7.1.1.2.2.2.4.2-.1.3-.3.4-.4.5-.9 1.1-1.8 1.6-2.8 1.4-2.5 2.9-4.9 4.4-7.3.3-.5.7-1 1-1.5 0-.1.1-.1.1-.2.3-.3.6-.2.8.1.1.1.1.3.2.4 0 .1.1.2.1.3l.3-.3c.4-.4.7-.9.9-1.4.1-.1.2-.3.3-.4.1-.1.2-.1.4-.2s.2-.1.2-.3c0-.3.2-.4.5-.5h.5c.3 0 .4-.1.6-.3 0 0 0-.1.1-.1.2-.3.5-.4.8-.2.2.1.4.1.6 0 .2-.1.3-.2.5-.2.4-.2.6-.1.8.3 0 .1.1.2.1.3.3.2.3.5.2.8-.1.4-.3.8-.4 1.2-.4.8-.9 1.5-1.3 2.2-.3.5-.6 1-.9 1.6-.1.3-.2.6-.1.9.1.3 0 .7-.2 1-.3.7-.7 1.3-1.1 2-.1.2-.3.5-.4.8 0 .1 0 .1-.1.2l-.1.1-.1.1c0 .1 0 .1-.1.2l-.1.1c0 .1 0 .1-.1.1l-.1.1s0 .1-.1.1c0 .1-.1.1-.1.1v.1s0-.1.1-.1c0 0 0-.1.1-.1 0-.1 0-.1.1-.1l.1-.1c0-.1 0-.1.1-.1l.1-.1s0-.1.1-.1c0-.1 0-.1.1-.1l.1-.1s0-.1.1-.1c.2-.3.4-.6.6-.8.2-.3.4-.6.8-.7v-.3c0-.4.3-.6.6-.8.2-.1.4-.1.5.1.1.1.1.2.1.3.2-.3.3-.5.4-.7.8-1.3 1.7-2.6 2.5-3.9.1-.1.1-.2.2-.3.1-.1.3-.2.5-.1s.2.3.2.5-.1.3-.2.5c-.3.5-.5.9-.8 1.4-1.1 1.8-2.1 3.6-3.2 5.5-1.2 2-2.3 4.1-3.4 6.1l-3 5.4c-.3.5-.5 1-.8 1.5-.1.3-.2.6-.3.8-.1.3 0 .5.3.6.3.1.4.3.5.6 0 .1.1.3.2.4l.3.6c0 .1 0 .3.1.4.1.2.2.3.3.3.2 0 .4.2.4.4v.1c.2.2.4.4.4.7 0 0 .1.1.2.1.2.1.3.3.3.5v.4c0 .4.1.7.3 1l.1.1c1 1.3 1.8 2.7 2.7 4 .2.3.4.5.6.8l.4.4c.2.1.2.2.3.4.1.6.4 1 .7 1.5 0 .1.2.1.2.2.4.2.5.4.5.8v.1c0 .2 0 .3.2.3.5.1.6.3.6.7.1.5.3.9.8 1.1.2.1.3.2.3.4 0 .3.1.5.2.7.6 1 1.2 1.9 1.7 2.9.3.5.6 1 .8 1.5.1.2.2.4.2.5.1.4-.3.7-.6.6-.4-.1-.6-.3-.8-.7-.1-.3-.3-.5-.4-.7 0-.1-.2-.1-.3-.2-.1.2-.3.4-.6.4-.2.1-.3.2-.3.4v.3c0 .3 0 .6-.4.7-.1.1-.2.1-.2.3-.1.6-.5.8-1 .4 0 0-.1-.1-.2-.1 0 0 0 .1-.1.1-.2.5-.3 1 0 1.5.2.5.5.9.7 1.4.1.1.1.3.2.4.1.4-.1.6-.5.5-.1 0-.2-.1-.3-.1-.2-.1-.3-.1-.5-.1-.5.2-1 .1-1.4-.2-.1-.1-.2-.1-.3-.2-.1.1-.1.2-.1.2-.2.3-.5.4-.8.1l-.4-.4c-.2-.2-.3-.5-.5-.7-.1-.1-.3-.3-.5-.4-.3-.1-.6-.3-.8-.6-.6-.7-1.2-1.5-1.7-2.2-1.1-1.7-2.2-3.4-3.2-5.1-.8-1.3-1.7-2.6-2.5-3.9-.5-.8-1-1.7-1.6-2.5-.1-.1-.2-.2-.3-.4-.1.1-.1.2-.2.3-.4.7-.7 1.6-1 2.4-.1.3-.2.6-.4.9-.1.2-.3.5-.5.7-.1.1-.1.2-.2.4-.1.3-.3.7-.3 1-.1.4-.3.7-.5 1.1-.3.5-.5 1-.7 1.5-.2.5-.5 1-.7 1.5-.1.3-.4.6-.6.8l-.2.2c-.2.1-.4.1-.5 0-.2-.1-.2-.3-.2-.5.1-.2.2-.5.3-.7.3-.5.5-1 .8-1.6.6-1.5 1.2-2.9 1.9-4.4.4-1 .9-2.1 1.4-3.1l.6-1.5c.1-.2.1-.4 0-.7-.1.1-.1.2-.2.3-1 2.1-2.1 4.3-3.1 6.4-.8 1.6-1.5 3.1-2.2 4.7-.3.7-.6 1.4-.9 2.2-.4.9-.8 1.7-1.2 2.5-.1.3-.3.5-.5.8-.1.1-.2.2-.3.2-.2.1-.3.1-.5 0-.1-.1-.2-.3-.2-.4 0-.2.1-.4.2-.5.5-1.1 1-2.1 1.5-3.2.1-.1.1-.3.2-.4h-.1c0 .1-.1.1-.1.2-.3.7-.6 1.4-1 2.1-.2.5-.5.9-.8 1.4l-.3.3c-.5.4-.9.4-1.4.1-.1-.1-.3-.2-.4-.3-.1-.1-.3-.1-.4 0-.1.1-.2.1-.3.2-.4.2-.7-.1-.7-.5v-.3c0-.2-.1-.3-.2-.4-.2-.1-.4-.1-.6-.2-.3-.1-.5-.2-.8-.3-.3-.2-.6-.4-.5-.8 0-.1-.1-.2-.1-.3-.4-.8-.4-1.2 0-1.8.2-.3.4-.6.5-1 .3-.5.5-1 .7-1.6m26.4-32.9s0-.1.1-.1v-.1c-.1 0-.1.1-.1.2l-.1.1.1-.1c-.1.1-.1.1 0 0M49.4 23s0 .1-.1.1l-.1.1s0 .1-.1.1c0 0 0 .1-.1.1 0 0 0 .1-.1.1 0 0 0-.1.1-.1 0 0 0-.1.1-.1 0 0 0-.1.1-.1l.2-.2m3.9-6.6c0-.1.1-.1.1-.2.2-.4.3-.7.5-1.1h-.1c-.3 0-.3.1-.4.2 0 .3-.1.6-.2.9.1.1.1.2.1.2l-.1.1c-.1.1-.1.2-.2.3 0 .1-.1.2-.1.2h.1c0-.1.1-.2.2-.3-.1 0-.1-.1.1-.3-.1.1-.1.1 0 0m-20 35.9c0 .1-.1.1-.1.2.1-.1.1-.2.1-.2.1 0 0 0 0 0M48.8 24c0-.1.1-.2.1-.3h-.1v.3c0 .1 0 .1 0 0m1.6-5.1c.1-.1.1-.2.2-.3.1-.2.3-.3.3-.5h-.1l-.3.6s-.1.1-.1.2c-.1 0 0 0 0 0M46.2 29c.2-.4.4-.7.6-1.1.5-1 1-1.9 1.5-2.9 0-.1.1-.2.1-.2-.1 0-.1.1-.2.1-.7 1.2-1.3 2.4-2 3.6v.5c-.1 0-.1 0 0 0m3.6-9.2c-.1.1-.2.2-.2.3l-3.3 5.7c-.2.4-.4.9-.7 1.3l.1-.1c.1-.1.2-.3.3-.5 1.1-1.9 2.2-3.9 3.3-5.8.2-.3.4-.7.6-1.1 0-.1.1-.1.1-.2h-.1c0 .2 0 .2-.1.4M20.2 3.6v.1c.2.5 0 .8-.5.9-.3.1-.4.2-.4.5 0 .2.1.4.2.6.5.7.9 1.4 1.4 2.1.1.2.3.3.6.3h11.1c.2 0 .2-.2.1-.3-.2-.2-.4-.5-.6-.7-.4-.5-.8-1-1.1-1.6-.3-.5-.7-.9-1-1.4-.3-.4-.6-.8-.7-1.3-.2 0-.3-.1-.4-.3 0-.1-.1-.2-.1-.2-.5-.6-.9-1.1-1.4-1.7-.1-.1-.2-.2-.4-.3 0 .2 0 .3-.1.4.1.3 0 .3-.2.3-.1 0-.3-.1-.4-.1-.3-.1-.6-.1-.9-.2-.3-.1-.4 0-.4.3v.1c0 .2-.1.3-.2.4-.2.1-.3-.1-.4-.2-.1-.1-.1-.2-.2-.3-.2.1-.2.2-.2.3 0 .1 0 .3.1.4.1.5.3 1 .4 1.6 0 .2.1.3 0 .5 0 .3-.2.4-.4.2-.2-.1-.3-.2-.4-.3-.3-.2-.5-.1-.7.2-.1.2-.1.3-.1.5v.5c0 .2-.2.3-.4.2-.6-.3-1.1-.7-1.5-1.1-.4-.1-.6-.3-.8-.4m25.2 26c.1 0 .1.1.2.1 0-.5.1-.8.3-1.2l1.2-2.4c1.6-2.8 3.2-5.6 4.9-8.4.3-.5.6-1 1-1.6.1-.2.2-.4.2-.7-.2.2-.3.3-.4.5-.6.8-1.2 1.7-1.7 2.6l-3.3 5.7c-.6 1-1.1 2-1.7 3-.2.3-.4.7-.7 1-.1.1-.2.3-.4.3-.2-.2-.2-.4-.1-.6.1-.3.2-.6.3-.8.6-1.1 1.1-2.1 1.7-3.2 1.6-2.8 3.3-5.6 4.9-8.3.4-.6.7-1.3 1-1.9.2-.3.2-.6.2-1 0-.3 0-.5.1-.8.1-.3.3-.6.4-.9.2-.3.4-.7.6-1 .5-.8 1-1.6 1.3-2.4l.3-.9c0-.1 0-.3-.1-.3-.2-.1-.2-.3-.3-.5 0-.1-.1-.1-.1-.2-.2.3-.6.5-.9.6-.2.1-.3.1-.4-.1-.1-.1-.3-.1-.4.1-.1.1-.1.2-.2.3-.1.2-.3.3-.5.3H52v.3c0 .3 0 .3-.3.4-.2.1-.3.1-.5.2-.2 0-.3.1-.4.2-.3.7-.8 1.3-1.3 1.8-.1.1-.2.2-.4.2-.3-.4-.2-.9-.6-1.2 0 .2-.1.2-.2.3-.1.2-.3.4-.4.6-.7 1.1-1.5 2.2-2.2 3.4l-3.9 6.6c-.3.4-.5.9-.8 1.3-.1.1-.2.3-.3.4-.2.1-.3.1-.4 0-.1-.1-.2-.2-.2-.3l-.3-.6c-.1-.2-.2-.4-.5-.5-.1 0-.2-.2-.2-.3 0-.4-.2-.7-.3-1.1-.1-.2-.1-.4-.2-.7 0-.1-.1-.2-.1-.3-.2-.3-.4-.5-.6-.7-.3-.4-.5-.9-.8-1.4-.1-.1-.1-.2-.2-.3 0 .1-.1.2-.1.3-.8 3.7-1.6 7.5-2.3 11.2-.2 1-.5 2.1-.7 3.1v.3c.4.6.7 1.3 1.1 1.9.1.2.2.4 0 .7-.8 1.6-1.6 3.1-2.4 4.7-.4.8-.7 1.6-1 2.5-.4 1.7-.9 3.4-1.7 5.1-.7 1.7-1.6 3.2-2.9 4.5-.1.1-.2.2-.2.4-.6 1.2-.9 2.5-1.7 3.6-.2.2-.1.5.1.7.1.1.2.1.3.2.1.1.2.2.1.4-.1.3-.1.4.2.5.2.1.5.2.7.3l.9.3c.3.2.4.3.3.7v.2c0 .2.1.3.3.2.1-.1.2-.1.3-.2.2-.2.4-.1.6 0 .2.1.4.3.5.4.3.2.6.2.9 0 .2-.2.4-.4.5-.6.3-.5.6-1 .8-1.5l3.6-7.8c1.1-2.3 2.1-4.5 3.2-6.8.2-.3.3-.7.5-1l.3-.3c.3.2.3.4.2.7-.1.3-.3.7-.4 1-.6 1.3-1.3 2.6-1.9 3.9-.7 1.5-1.4 3-2 4.5-.1.3-.2.6-.4.9-.3.6-.5 1.1-.8 1.7l-2.1 4.8c-.1.3-.3.5-.4.8-.1.1-.1.2 0 .4l.3-.3c.1-.2.3-.4.4-.6.4-.8.8-1.6 1.1-2.4.3-.7.5-1.4.8-2l3-6.3c.9-1.8 1.8-3.6 2.6-5.4.1-.2.2-.3.3-.5.4.3.6.9.4 1.4-.1.2-.2.4-.3.7-.7 1.7-1.5 3.4-2.2 5.1-.7 1.7-1.4 3.4-2.3 5.1-.1.1-.1.2-.2.4v.3c.1-.1.2-.2.3-.2.3-.3.5-.7.7-1 .3-.6.5-1.2.8-1.8.2-.5.4-.9.7-1.3l.1-.1c-.1-.3 0-.4.2-.6.1-.1.1-.2.1-.3.1-.2.1-.5.2-.7 0-.1.1-.2.2-.3.2-.1.3-.3.4-.5l.6-1.5c.3-.9.7-1.8 1.1-2.6 0-.1.1-.2.2-.3.1.1.2.2.2.3 1.4 2.1 2.7 4.2 4.1 6.4 1.1 1.7 2.2 3.5 3.3 5.2.5.8 1.1 1.6 1.6 2.3.2.3.5.5.7.8.1.1.1.1.2.1.1.1.3.1.4.2.2.2.4.4.5.6.2.2.3.4.4.6.1.1.1.2.3.2.2-.3-.2-.5-.2-.8.2 0 .4 0 .6.2.2.2.5.3.7.5.4.3.7.4 1.2.2.2-.1.4-.1.6.1.1.1.2.2.4.1-.1-.1-.1-.3-.2-.4-.2-.5-.5-1-.7-1.5-.3-.7-.1-1.3.2-1.9.1-.2.3-.2.5 0 .1.1.2.2.2.3.3-.2.3-.2.3-.4v-.4h.4c.2 0 .3-.1.3-.3v-.2c-.1-.4.1-.8.5-.9.1 0 .2-.1.2-.1-.1-.3-.1-.6-.2-.9h.1l.5.5c.2.2.3.3.6.3 0 .3 0 .5.3.6 0 0 .1.1.1.2-.1.1 0 .3.1.4l.3.3h.2c.1 0 .1-.2 0-.2-.1-.2-.2-.5-.3-.7-.5-.9-1.1-1.8-1.6-2.7-.3-.6-.6-1.2-1-1.7.4-1.2.4-1.3.4-1.5-.1-.1-.3-.1-.3-.2-.2-.4-.5-.7-.7-1.1v-.3c0-.2 0-.2-.2-.2-.4 0-.7-.3-.6-.7 0-.2.1-.3-.1-.5-.1-.1-.1.1-.3 0-.4-.5-.7-1.1-1-1.7-.1-.2-.2-.5-.4-.6-.2-.1-.3-.3-.4-.5-.3-.4-.6-.8-.8-1.2-.8-1.2-1.5-2.4-2.4-3.5-.3-.4-.4-.8-.4-1.3v-.4c0-.1-.1-.2-.2-.1v.4c-.3-.3-.5-.7-.4-1.1-.3-.1-.3-.1-.4-.6-.5 0-.7-.4-.8-.8v-.2c-.1-.1-.1-.3-.2-.4-.1-.1-.2-.2-.2-.4s-.1-.4-.3-.5c-.6-.3-.6-.7-.5-1.1.1-.3.2-.7.3-1 1.8-3.4 3.7-6.7 5.6-10.1 1.7-3 3.3-5.9 5.1-8.8.2-.3.3-.6.5-.8.1-.1.1-.2.1-.3h-.1c-.1.1-.2.3-.3.5-1 1.6-2 3.1-3 4.7l-.6 1.2c-.1.1-.1.2-.2.3-.5.7-.9 1.5-1.4 2.2-2.2 3.8-4.4 7.6-6.4 11.5-.1.1-.2.2-.2.4-.3-.5-.4-.8-.4-1.2-.1 0-.1 0 0 0M25.4 15c.5.9 1 1.7 1.5 2.6l1.5 2.7c.5.9.9 1.7 1.5 2.6.3-.8 1.9-9 1.9-9.2h-7v.1c.1.3.3.7.6 1.2m8.5 15.9c-.1-.1-.1-.1-.2-.3-.4 2-.8 4-1.3 6 .1 0 .1 0 .1-.1.7-1.3 1.3-2.6 2-4 .1-.2.1-.3 0-.5-.1-.3-.3-.7-.6-1.1m19.8-16.1c.1-.1.2-.3.2-.5-.3.1-.5.3-.4.6.1 0 .2-.1.2-.1m-5.2 9.7c.1 0 .1-.1.1-.2 0 0-.1.1-.1.2M33 52.9c.1 0 .1 0 0 0 .1 0 .1 0 0 0 .1 0 .1 0 0 0M33.2 52.6z" class="st0"/><path d="M12.4 62c-1.4 2.4-2.7 4.8-4.1 7.2-.1.2-.2.4-.3.4-.2.1-.5 0-.7 0-.3 0-.3-.1-.3-.2-.1-.5-.1-.9-.2-1.4l-.6-4.5c0-.1 0-.2-.1-.4-.1.2-.2.3-.2.4-1.1 1.9-2.2 3.8-3.3 5.8-.2.3-.4.5-.7.4h-.2c-.3 0-.4-.1-.4-.4L1 67.5c-.3-2.1-.6-4.3-1-6.4 0-.3 0-.4.3-.4h.5c.3 0 .3.1.4.3.1.6.2 1.3.3 1.9.2 1.4.4 2.9.6 4.3 0 .1 0 .1.1.2.2 0 .2-.2.2-.2.8-1.5 1.7-2.9 2.5-4.4.4-.5.7-1.1 1.1-1.8.2-.3.4-.4.7-.3.2 0 .2.2.2.3.1.4.1.7.2 1.1.3 1.7.5 3.4.8 5.2 0 .1 0 .1.1.3.1-.1.2-.1.2-.2.9-1.6 1.8-3.1 2.7-4.7.3-.5.6-1 .9-1.6.1-.2.3-.4.6-.3.2 0 .5 0 .7.1 0 .3-.2.4-.3.6-.2.1-.3.3-.4.5zM18.9 64.6H22c.2 0 .3-.1.3-.2s.1-.2.1-.4c.2-.9.4-1.9.6-2.8.1-.4.1-.4.5-.4h.4c.2 0 .3.1.2.3 0 .2-.1.5-.1.7-.5 2.5-1.1 5-1.6 7.5-.1.4-.1.5-.6.5-.6 0-.6 0-.5-.6l.6-2.7c0-.1 0-.2.1-.3 0-.3 0-.3-.3-.3h-2.8c-.3 0-.3 0-.4.4l-.6 2.7c0 .2-.1.4-.1.6-.1.2-.1.3-.4.3h-.5c-.3 0-.3-.1-.3-.3l.3-1.2c.5-2.3 1-4.6 1.5-6.8.1-.6.1-.6.7-.6.5 0 .5 0 .4.5-.2.9-.5 1.9-.6 3.1-.1 0-.1 0 0 0z" class="st1"/><path d="M44.1 60.7h1.3c.5 0 .5 0 .4.5 0 .1 0 .2-.1.3-.1.4-.1.4-.5.4h-2.9c-.2 0-.3.1-.4.3-.2.7-.3 1.4-.4 2.1-.1.3 0 .3.3.3H43.7c.3 0 .3.1.3.4 0 .2-.1.3-.1.5-.1.3-.1.3-.4.3h-1.6c-.7 0-.7 0-.8.7-.1.5-.2 1.1-.3 1.6-.1.4 0 .5.4.5h2.9c.3 0 .3.1.3.3 0 .2-.1.4-.1.5 0 .2-.1.3-.3.3h-4c-.5 0-.6 0-.5-.5.6-2.6 1.1-5.3 1.7-7.9v-.2c.1-.3.1-.3.4-.3h1.1c.3-.1.8-.1 1.4-.1zM32.9 69.7h-4c-.4 0-.5-.1-.4-.5.4-2.1.9-4.2 1.3-6.3.1-.6.2-1.1.4-1.7.1-.4.1-.4.5-.4h4.1c.2 0 .2.1.2.3v.1c-.2.9-.1.8-.9.8h-2.3c-.6 0-.6 0-.7.6-.1.6-.3 1.2-.4 1.8-.1.3 0 .4.3.4h1.8c.3 0 .3.1.3.3 0 .2-.1.3-.1.5-.1.3-.1.3-.4.3h-2c-.3 0-.3 0-.4.3-.1.7-.3 1.3-.4 2-.1.3 0 .4.3.4h2.7c.6 0 .6 0 .5.6 0 .1 0 .2-.1.3 0 .1-.1.2-.3.2z" class="st2"/><path d="M66.4 62.4v.2c0 .4-.1.4-.4.4h-.2c-.4 0-.4 0-.6-.4-.1-.2-.2-.4-.4-.5-.6-.3-1.5-.2-2 .3-.5.4-.5 1-.1 1.5.3.3.6.6 1 .9.4.4.8.7 1.2 1.1.7.7.8 1.4.4 2.3-.6 1.3-2.3 2-3.7 1.6-.8-.2-1.3-.8-1.3-1.6 0-.3 0-.3.3-.4h.3c.3 0 .5.1.6.4.1.2.2.4.5.5.6.2 1.2.2 1.7-.2l.3-.3c.3-.4.3-.8 0-1.2-.3-.3-.6-.6-.9-.8-.5-.4-.9-.7-1.4-1.2-.7-.6-.8-1.4-.4-2.3.5-1 1.4-1.6 2.5-1.7.4 0 .9 0 1.3.1.9 0 1.3.5 1.3 1.3z" class="st1"/><path d="M52.6 61.7c-.4 2.1-.9 4.2-1.3 6.2-.1.6-.1.6.5.6H54.9c.2 0 .3.1.2.3 0 .2-.1.4-.1.7 0 .1-.1.2-.3.2h-4.4c-.5 0-.5 0-.4-.5.6-2.6 1.1-5.2 1.7-7.8.1-.6.1-.6.8-.6h.1c.3 0 .4.1.3.4-.1.1-.2.3-.2.5z" class="st2"/><path d="M18.9 64.6c-.1 0-.1 0 0 0-.1 0-.1 0 0 0z" style="fill:#091313"/><path d="M55.1 45c.1.2.1.3 0 .5-.1.4.2.8.6.7.2 0 .2 0 .2.2v.3c.2.4.4.7.7 1.1.1.1.2.2.3.2 0 .1 0 .3.1.4.3.6.6 1.2 1 1.7.5.9 1.1 1.8 1.6 2.7.1.2.2.4.3.7v.2c-.1 0-.2.1-.2 0l-.3-.3c-.1-.1-.1-.2-.1-.4 0 0 0-.2-.1-.2-.3 0-.3-.3-.3-.6-.3.1-.4-.1-.6-.3-.2-.2-.4-.3-.5-.5h-.1c.1.3.1.6.2.9-.1 0-.2.1-.2.1-.4.1-.6.5-.5.9v.2c0 .2 0 .3-.3.3h-.4v.4c0 .3 0 .3-.3.4-.1-.1-.2-.2-.2-.3-.2-.2-.4-.2-.5 0-.3.6-.6 1.2-.2 1.9.2.5.5 1 .7 1.5.1.1.1.3.2.4-.2.1-.3 0-.4-.1-.2-.2-.4-.2-.6-.1-.4.2-.8.1-1.2-.2-.2-.2-.5-.3-.7-.5-.2-.1-.4-.2-.6-.2 0 .3.4.5.2.8-.2.1-.2-.1-.3-.2-.2-.2-.3-.4-.4-.6-.2-.2-.3-.4-.5-.6-.1-.1-.3-.2-.4-.2-.1 0-.1-.1-.2-.1-.3-.3-.5-.5-.7-.8-.6-.8-1.1-1.5-1.6-2.3-1.1-1.7-2.2-3.4-3.3-5.2-1.3-2.1-2.7-4.2-4.1-6.4-.1-.1-.1-.2-.2-.3-.1.1-.1.2-.2.3-.4.8-.8 1.7-1.1 2.6l-.6 1.5c-.1.2-.2.4-.4.5-.1.1-.1.2-.2.3-.1.2-.1.5-.2.7 0 .1-.1.3-.1.3-.1.2-.3.3-.2.6 0 0 0 .1-.1.1-.4.4-.5.8-.7 1.3-.3.6-.5 1.2-.8 1.8-.2.4-.4.8-.7 1-.1.1-.2.1-.3.2V52c0-.1.1-.3.2-.4.9-1.6 1.6-3.4 2.3-5.1.7-1.7 1.5-3.4 2.2-5.1.1-.2.2-.4.3-.7.2-.5 0-1.1-.4-1.4-.1.2-.2.3-.3.5-.9 1.8-1.8 3.6-2.6 5.4l-3 6.3c-.3.7-.5 1.4-.8 2-.3.8-.7 1.6-1.1 2.4-.1.2-.2.4-.4.6l-.3.3c-.1-.2-.1-.3 0-.4.1-.3.3-.5.4-.8l2.1-4.8c.2-.6.5-1.1.8-1.7.1-.3.2-.6.4-.9.7-1.5 1.3-3 2-4.5.6-1.3 1.3-2.6 1.9-3.9.2-.3.3-.6.4-1 .1-.2 0-.5-.2-.7l-.3.3c-.2.3-.4.7-.5 1-1.1 2.2-2.2 4.5-3.2 6.8L31.9 54c-.2.5-.5 1-.8 1.5-.1.2-.3.4-.5.6-.3.3-.5.3-.9 0-.2-.1-.4-.3-.5-.4-.2-.2-.4-.2-.6 0-.1.1-.2.2-.3.2-.2.1-.3 0-.3-.2v-.2c.1-.3 0-.5-.3-.7l-.9-.3c-.2-.1-.5-.2-.7-.3-.2-.1-.3-.2-.2-.5 0-.1 0-.3-.1-.4-.1-.1-.2-.1-.3-.2-.2-.2-.3-.4-.1-.7.8-1.1 1.1-2.4 1.7-3.6.1-.1.1-.3.2-.4 1.3-1.3 2.2-2.9 2.9-4.5.7-1.6 1.2-3.4 1.7-5.1.2-.9.5-1.7 1-2.5.8-1.6 1.6-3.1 2.4-4.7.1-.3.1-.4 0-.7-.4-.6-.7-1.3-1.1-1.9 0-.1-.1-.2 0-.3.2-1 .5-2.1.7-3.1.8-3.7 1.6-7.5 2.3-11.2 0-.1 0-.2.1-.3.1.1.1.2.2.3.3.5.5.9.8 1.4.2.3.4.5.6.7.1.1.1.2.1.3.1.2.1.4.2.7.1.4.3.7.3 1.1 0 .1.1.3.2.3.2.1.3.3.5.5l.3.6c.1.1.1.2.2.3.1.2.3.2.4 0 .1-.1.2-.2.3-.4.3-.4.6-.9.8-1.3l3.9-6.6c.7-1.1 1.4-2.2 2.2-3.4.1-.2.3-.4.4-.6-.3 1-.2 1-.1.8.4.3.3.8.6 1.2.1-.1.3-.1.4-.2.5-.5 1-1.1 1.3-1.8 0-.1.2-.2.3-.2.1-.1.3-.1.5-.2.3-.1.3-.1.3-.4v-.3h.8c.2 0 .4-.1.5-.3.1-.1.1-.2.2-.3.1-.2.3-.2.4-.1.1.2.3.1.4.1.3-.1.7-.3 1.1-.4 0 .1.1.1.1.2 0 .2.1.3.3.5.1 0 .1.2.1.3l-.3.9c-.4.8-.9 1.6-1.3 2.4-.2.3-.4.7-.6 1-.2.3-.3.6-.4.9-.3.2-.3.4-.3.7 0 .3 0 .7-.2 1-.3.6-.7 1.3-1 1.9-1.6 2.8-3.3 5.5-4.9 8.3-.6 1-1.1 2.1-1.7 3.2-.1.3-.2.5-.3.8-.1.2-.1.4.1.6.2 0 .3-.2.4-.3.2-.3.5-.6.7-1 .6-1 1.1-2 1.7-3l3.3-5.7c.5-.9 1.1-1.8 1.7-2.6.1-.1.2-.3.4-.5 0 .3-.1.5-.2.7-.3.5-.7 1-1 1.6-1.6 2.8-3.2 5.6-4.9 8.4l-1.2 2.4c-.2.4-.3.7-.3 1.2-.1-.1-.2-.1-.2-.2h-.1c.1.3.2.6.5.9.1-.2.2-.3.2-.4 2-3.9 4.1-7.7 6.4-11.5.4-.7.9-1.5 1.4-2.2.1-.1.1-.2.2-.3l.6-1.2c1-1.6 2-3.1 3-4.7.1-.2.2-.3.3-.5h.1c0 .1-.1.2-.1.3-.2.3-.3.6-.5.8-1.8 2.9-3.5 5.9-5.1 8.8-1.9 3.4-3.7 6.7-5.6 10.1-.2.3-.3.6-.3 1-.1.4-.1.8.5 1.1.2.1.3.3.3.5s.1.3.2.4c.1.1.2.3.2.4v.2c.1.4.2.8.8.8.1.5.1.5.4.6-.1.4.1.7.4 1.1v-.4c.1-.1.2 0 .2.1v.4c0 .5.1.9.4 1.3.9 1.1 1.6 2.3 2.4 3.5.3.4.5.8.8 1.2.1.2.3.4.4.5.3.2.3.4.4.6.2.6.5 1.2 1 1.7l.1.1c0 .2 0 .2.2.2-.1 0 0 0 0 0zM20.3 3.6c.2.1.4.3.5.4.4.5 1 .8 1.5 1.1.2.1.3 0 .4-.2v-.5c0-.2.1-.4.1-.5.1-.3.4-.3.7-.2.2.1.4.2.5.3.3.1.4.1.4-.2v-.5c-.1-.5-.3-1.1-.4-1.6 0-.1-.1-.3-.1-.4 0-.1 0-.3.2-.3.1.1.1.2.2.3.1.1.2.3.4.2.2-.1.3-.2.3-.4V1c0-.3.1-.4.4-.3.3 0 .6.1.9.2.1 0 .3.1.4.1.2 0 .3 0 .3-.3 0-.1 0-.2.1-.4.2.1.3.2.4.3.5.6.9 1.1 1.4 1.7.1.1.1.2.1.2.1.2.2.3.4.3.1.5.4.9.7 1.3.3.5.7.9 1 1.4.4.5.7 1 1.1 1.5.2.2.4.5.6.7.1.2.1.3-.1.3H21.6c-.3 0-.4-.1-.6-.3-.5-.7-.9-1.4-1.4-2.1-.1-.2-.2-.4-.2-.6 0-.3.1-.4.4-.5.4 0 .6-.3.5-.9-.1 0 0 0 0 0zM25.4 15c-.2-.4-.5-.8-.7-1.2v-.1h7c0 .3-1.6 8.4-1.9 9.2-.5-.9-1-1.8-1.5-2.6l-1.5-2.7c-.5-.9-.9-1.7-1.4-2.6z" class="st4"/><path d="M34 30.9c.2.4.4.8.7 1.2.1.2.1.3 0 .5-.7 1.3-1.3 2.6-2 4l-.1.1c.4-2 .8-3.9 1.3-6-.1.1 0 .1.1.2z" style="fill:#010101"/><path d="M45.6 27.1c.2-.4.4-.9.7-1.3l3.3-5.7.3-.3c-.2.3-.4.7-.6 1-1.1 2-2.2 3.9-3.3 5.8-.1.2-.2.4-.4.5z" class="st6"/><path d="M46.1 29c0-.1.1-.3.1-.4.6-1.2 1.3-2.4 2-3.6 0-.1.1-.1.2-.1 0 .1-.1.2-.1.2-.5 1-1 1.9-1.5 2.9-.2.2-.4.6-.7 1zM53.3 16.2c0-.3.1-.6.1-.8 0-.2 0-.2.4-.2-.1.3-.2.7-.5 1 .1.1 0 0 0 0z" class="st7"/><path d="M53.7 14.8c-.1 0-.1.1-.2.1 0-.3.1-.5.4-.6.1.2 0 .3-.2.5z" style="fill:#d72f2f"/><path d="m50.5 18.6.3-.6h.1c0 .2-.2.4-.4.6.1 0 0 0 0 0z" class="st6"/><path d="M48.5 24.5c0-.1.1-.1.1-.2 0 .1.1.2-.1.2z" class="st7"/><path d="M49.9 19.7c0-.1.1-.2.1-.3h.1c-.1.2-.1.3-.2.3 0 .1 0 0 0 0zM50.2 19.2zM50.6 18.6c0 .1-.1.2-.2.3 0-.1.1-.2.2-.3-.1 0 0 0 0 0z" class="st6"/><path d="M53.2 16.5c0 .1-.1.2-.2.3 0-.1.1-.2.2-.3zM48.8 24c0-.1.1-.2.1-.2 0 .1 0 .2-.1.2 0 .1 0 0 0 0z" class="st7"/><path d="M33 52.9c.1 0 .1 0 0 0 .1 0 .1 0 0 0 .1 0 .1 0 0 0z"/><path d="M52.8 17.1c0-.1.1-.2.1-.2s0 .1-.1.2zM33.2 52.5c0-.1.1-.1.1-.2 0 0 0 .1-.1.2zM52.6 17.4v-.1c.1 0 .1 0 0 .1.1 0 .1 0 0 0z" class="st7"/><path d="M55.1 44.9h-.2c0 .1 0-.1.2 0z" style="fill:#a42f2f"/><path d="M53.4 16.3c0 .1-.1.1-.1.2 0-.1 0-.2.1-.2-.1-.1 0 0 0 0z" class="st7"/><path d="M51.1 17.6s0 .1-.1.1l.1-.1z" class="st6"/><path d="M51.1 17.6v-.1c.1 0 .1.1 0 .1zM51.4 17.1c0-.1 0-.1.1-.2 0 .1 0 .1-.1.2zM33.4 52zM33.3 52.3s.1 0 0 0zM46 29.2zM46.1 29z" class="st7"/><path d="M45.6 27.1s0 .1 0 0c0 .1 0 0 0 0z" class="st6"/><path d="M49 23.6s0-.1.1-.1l-.1.1c.1 0 0 0 0 0zM51.4 17.2s0 .1-.1.1c0-.1 0-.1.1-.1zM53.9 15.2s0-.1 0 0c0-.1 0 0 0 0zM49.1 23.4s0-.1.1-.1c0 0 0 .1-.1.1zM49.3 23.2v.1c-.1 0-.1-.1 0-.1z" class="st7"/><path d="M51.6 16.7s0-.1.1-.1c0 .1 0 .1-.1.1.1 0 0 0 0 0z"/><path d="M49.3 23.1s0-.1.1-.1l-.1.1zM49.4 23zM51.2 17.4v.1-.1zM52.5 17.6z" class="st7"/><path d="M51.5 16.9v-.1c.1.1.1.1 0 .1z"/><path d="M52.6 17.4s0 .1-.1.1c.1 0 .1 0 .1-.1z" class="st7"/><path d="M33 53.1z"/><path d="M20.2 3.6c.1 0 0 0 0 0z" class="st4"/><path d="M52.8 17.1zM51.4 17.1c0 .1 0 .1 0 0z" class="st7"/><path d="M51.6 16.8c0-.1.1-.1 0 0z"/><path d="M53.2 16.5zM48.9 23.8zM51.2 17.4c.1-.1.1-.1 0 0 .1-.1.1-.1 0 0 .1-.1.1-.1 0 0z" class="st7"/><path d="M33.2 52.6zM33.2 52.5c.1 0 .1 0 0 0 .1 0 0 0 0 0z"/><path d="M52.5 17.6z" class="st7"/><path d="M26.2 50.4z"/><path d="M50.4 18.9s-.1 0 0 0c-.1 0-.1 0 0 0-.1 0 0 0 0 0z" class="st6"/><path d="M49.3 23.1c0 .1 0 .1 0 0zM49.1 23.6s-.1 0 0 0c-.1 0-.1 0 0 0-.1 0 0 0 0 0zM48.8 24.1s0-.1 0 0c0-.1 0 0 0 0z" class="st7"/><path d="M54.8 45c.1 0 .1-.1 0 0 .1 0 .1 0 0 0 .1 0 .1 0 0 0zM45.3 29.7c0-.1 0-.1 0 0 0-.1 0-.1 0 0 0-.1 0-.1 0 0z" class="st0"/></svg>