<?xml version="1.0" encoding="utf-8"?>
<!-- Generator: Adobe Illustrator 22.1.0, SVG Export Plug-In . SVG Version: 6.00 Build 0)  -->
<svg version="1.1" id="Group_42" xmlns="http://www.w3.org/2000/svg" xmlns:xlink="http://www.w3.org/1999/xlink" x="0px" y="0px"
	 viewBox="0 0 30 23.5" style="enable-background:new 0 0 30 23.5;" xml:space="preserve">
<style type="text/css">
	.st0{clip-path:url(#SVGID_2_);}
	.st1{fill:#FFFFFF;}
</style>
<g>
	<defs>
		<rect id="SVGID_1_" x="2.7" width="24.6" height="23.5"/>
	</defs>
	<clipPath id="SVGID_2_">
		<use xlink:href="#SVGID_1_"  style="overflow:visible;"/>
	</clipPath>
	<g id="Group_41" transform="translate(0 0)" class="st0">
		<g id="Group_40" transform="translate(0 0)">
			<path id="Path_35" class="st1" d="M26.5,8.4l-7.4-1.1l-3.3-6.7C15.5,0.2,15.3,0,15,0s-0.5,0.2-0.7,0.6L11,7.3L3.5,8.4
				C3,8.5,2.7,8.7,2.7,9.1c0,0.3,0.2,0.5,0.4,0.7L8.5,15l-1.3,7.4c0,0.1,0,0.2,0,0.3c0,0.2,0,0.4,0.2,0.5c0.1,0.1,0.3,0.2,0.5,0.2
				c0.2,0,0.4-0.1,0.6-0.2l6.6-3.5l6.6,3.5c0.2,0.1,0.4,0.2,0.6,0.2c0.2,0,0.3-0.1,0.5-0.2c0.1-0.2,0.2-0.3,0.2-0.5
				c0-0.1,0-0.2,0-0.3L21.5,15l5.4-5.2c0.2-0.2,0.4-0.4,0.4-0.7C27.3,8.7,27,8.5,26.5,8.4"/>
		</g>
	</g>
</g>
</svg>
