<svg xmlns="http://www.w3.org/2000/svg" xmlns:xlink="http://www.w3.org/1999/xlink" viewBox="0 0 17.086 16.143">
  <defs>
    <style>
      .cls-1 {
        fill: none;
      }

      .cls-2 {
        clip-path: url(#clip-path);
      }

      .cls-3 {
        fill: #fff;
      }
    </style>
    <clipPath id="clip-path">
      <path id="Path_182" data-name="Path 182" class="cls-1" d="M0,6.286H17.086V-9.857H0Z" transform="translate(0 9.857)"/>
    </clipPath>
  </defs>
  <g id="Group_146" data-name="Group 146" class="cls-2" transform="translate(0 0)">
    <g id="Group_145" data-name="Group 145" transform="translate(0 0)">
      <path id="Path_181" data-name="Path 181" class="cls-3" d="M6.5,2.938-.644-4.2a1.363,1.363,0,0,0-1-.406,1.3,1.3,0,0,0-.986.406l-7.14,7.139a1.36,1.36,0,0,0-.416,1,1.346,1.346,0,0,0,.416.988l.822.822a1.3,1.3,0,0,0,.988.418,1.3,1.3,0,0,0,.988-.418l3.225-3.213v7.722a1.163,1.163,0,0,0,.411.925,1.463,1.463,0,0,0,.992.357h1.4a1.468,1.468,0,0,0,.992-.357,1.168,1.168,0,0,0,.411-.925V2.532L3.688,5.745a1.3,1.3,0,0,0,.986.418,1.362,1.362,0,0,0,1-.418L6.5,4.923a1.416,1.416,0,0,0,0-1.985" transform="translate(10.185 4.607)"/>
    </g>
  </g>
</svg>
