<svg xmlns="http://www.w3.org/2000/svg" xmlns:xlink="http://www.w3.org/1999/xlink" viewBox="0 0 19 14.563">
  <defs>
    <style>
      .cls-1 {
        fill: none;
      }

      .cls-2 {
        clip-path: url(#clip-path);
      }

      .cls-3 {
        fill: red;
      }
    </style>
    <clipPath id="clip-path">
      <path id="Path_28" data-name="Path 28" class="cls-1" d="M0-25.72H19V-40.283H0Z" transform="translate(0 40.283)"/>
    </clipPath>
  </defs>
  <g id="Group_36" data-name="Group 36" transform="translate(0 0)">
    <g id="Group_31" data-name="Group 31" class="cls-2" transform="translate(0 0)">
      <g id="Group_30" data-name="Group 30" transform="translate(0 0)">
        <path id="Path_27" data-name="Path 27" class="cls-3" d="M-32.952-3.551l-1.667-1.667a1.136,1.136,0,0,0-.833-.343,1.136,1.136,0,0,0-.834.343l-8.041,8.054-3.6-3.616a1.136,1.136,0,0,0-.834-.343A1.136,1.136,0,0,0-49.6-.78L-51.266.887a1.135,1.135,0,0,0-.343.834,1.134,1.134,0,0,0,.343.833l4.437,4.437,1.667,1.667A1.135,1.135,0,0,0-44.328,9a1.135,1.135,0,0,0,.834-.343l1.667-1.667,8.875-8.875a1.135,1.135,0,0,0,.343-.834,1.135,1.135,0,0,0-.343-.834" transform="translate(51.609 5.561)"/>
      </g>
    </g>
  </g>
</svg>
