
<svg xmlns="http://www.w3.org/2000/svg" viewBox="0 0 1531 179.565">
  <g fill="#fff">
    <path d="M847.552 6.431h-21.005v166.706h164.532v-21.005H847.552v-124.7h143.527V6.431Z" data-name="Path 11844"/>
    <path d="m970.041 100.286 21.038-21.005h-102l-21.039 21.005Z" data-name="Path 11845"/>
    <path d="M279.825 6.43h21.005v166.706h-21.005z" data-name="Rectangle 802"/>
    <path d="M681.239 6.43h21.005v166.706h-21.005z" data-name="Rectangle 803"/>
    <path d="m97.244 94.853 70.488-70.488a10.5 10.5 0 0 0-7.425-17.931h-149.8a10.505 10.505 0 0 0-10.5 10.5v156.2h21v-145.7h113.944L74.965 87.416a10.5 10.5 0 0 0 0 14.854l70.863 70.863h29.7Z" data-name="Path 11846"/>
    <path d="m1206.491 94.853 70.484-70.488a10.5 10.5 0 0 0-7.425-17.931h-149.8a10.505 10.505 0 0 0-10.5 10.5v156.2h20.998v-145.7h113.946l-59.985 59.982a10.5 10.5 0 0 0 0 14.854l70.859 70.866h29.707Z" data-name="Path 11847"/>
    <path d="M449.798 143.707V6.429h-21v162.634a10.5 10.5 0 0 0 17.931 7.425L616.778 6.429h-29.7Z" data-name="Path 11848"/>
    <path d="M1509.995 35.863v137.273h21V10.499a10.5 10.5 0 0 0-17.927-7.425l-170.054 170.062h29.7Z" data-name="Path 11849"/>
  </g>
</svg>
