<svg xmlns="http://www.w3.org/2000/svg" xmlns:xlink="http://www.w3.org/1999/xlink" viewBox="0 0 13.65 23.407">
  <defs>
    <style>
      .cls-1 {
        fill: none;
      }

      .cls-2 {
        clip-path: url(#clip-path);
      }

      .cls-3 {
        fill: #fff;
      }
    </style>
    <clipPath id="clip-path">
      <path id="Path_38" data-name="Path 38" class="cls-1" d="M0-93.1H13.65V-116.51H0Z" transform="translate(0 116.51)"/>
    </clipPath>
  </defs>
  <g id="Group_50" data-name="Group 50" transform="translate(13.65 -93.103) rotate(180)">
    <g id="Group_48" data-name="Group 48" class="cls-2" transform="translate(0 -116.51)">
      <g id="Group_47" data-name="Group 47" transform="translate(0 0)">
        <path id="Path_37" data-name="Path 37" class="cls-3" d="M-53.361-44.406-64.291-55.335a.743.743,0,0,0-.539-.235.742.742,0,0,0-.539.235l-1.173,1.173a.742.742,0,0,0-.234.539.741.741,0,0,0,.234.539l9.217,9.217-9.217,9.217a.742.742,0,0,0-.234.539.741.741,0,0,0,.234.539L-65.37-32.4a.74.74,0,0,0,.539.235.742.742,0,0,0,.539-.235l10.929-10.929a.742.742,0,0,0,.234-.539.743.743,0,0,0-.234-.539" transform="translate(66.777 55.57)"/>
      </g>
    </g>
  </g>
</svg>
