<svg xmlns="http://www.w3.org/2000/svg" viewBox="0 0 13 22" width="13" height="22">
	<style>
		tspan { white-space:pre }
		.shp0 { fill: #ffcf00 } 
	</style>
	<g id="Group_164">
		<g id="Layer">
			<g id="Group_48">
				<g id="Group_47">
					<path id="Path_37" class="shp0" d="M12.45,10.36l-10.14,-10.14c-0.06,-0.07 -0.14,-0.12 -0.23,-0.16c-0.09,-0.04 -0.18,-0.06 -0.27,-0.06c-0.09,0 -0.19,0.02 -0.27,0.06c-0.09,0.04 -0.16,0.09 -0.23,0.16l-1.09,1.09c-0.07,0.06 -0.12,0.14 -0.16,0.23c-0.04,0.09 -0.06,0.18 -0.06,0.27c0,0.09 0.02,0.19 0.06,0.27c0.04,0.09 0.09,0.16 0.16,0.23l8.56,8.55l-8.56,8.56c-0.07,0.06 -0.12,0.14 -0.16,0.23c-0.04,0.09 -0.06,0.18 -0.06,0.27c0,0.09 0.02,0.19 0.06,0.27c0.04,0.09 0.09,0.16 0.16,0.23l1.09,1.09c0.06,0.07 0.14,0.12 0.23,0.16c0.09,0.04 0.18,0.06 0.27,0.06c0.09,0 0.19,-0.02 0.27,-0.06c0.09,-0.04 0.16,-0.09 0.23,-0.16l10.14,-10.15c0.07,-0.06 0.12,-0.14 0.16,-0.23c0.04,-0.09 0.06,-0.18 0.06,-0.27c0,-0.09 -0.02,-0.19 -0.06,-0.27c-0.04,-0.09 -0.09,-0.16 -0.16,-0.23" />
				</g>
			</g>
		</g>
	</g>
</svg>