<svg xmlns="http://www.w3.org/2000/svg" viewBox="0 0 19 15" width="19" height="15">
	<style>
		tspan { white-space:pre }
		.shp0 { fill: #ed3030 } 
	</style>
	<g id="Group_36">
		<g id="Group_31">
			<g id="Group_30">
				<path id="Path_27" class="shp0" d="M18.66,2.01l-1.67,-1.67c-0.05,-0.06 -0.11,-0.11 -0.18,-0.15c-0.06,-0.04 -0.13,-0.08 -0.2,-0.11c-0.07,-0.03 -0.15,-0.05 -0.22,-0.07c-0.08,-0.01 -0.15,-0.02 -0.23,-0.02c-0.08,0 -0.15,0.01 -0.23,0.02c-0.08,0.01 -0.15,0.04 -0.22,0.07c-0.07,0.03 -0.14,0.07 -0.2,0.11c-0.06,0.04 -0.12,0.09 -0.18,0.15l-8.04,8.05l-3.6,-3.62c-0.05,-0.06 -0.11,-0.11 -0.18,-0.15c-0.06,-0.04 -0.13,-0.08 -0.2,-0.11c-0.07,-0.03 -0.15,-0.05 -0.22,-0.07c-0.08,-0.01 -0.15,-0.02 -0.23,-0.02c-0.08,0 -0.16,0 -0.23,0.02c-0.08,0.01 -0.15,0.04 -0.22,0.07c-0.07,0.03 -0.14,0.07 -0.21,0.11c-0.06,0.04 -0.12,0.09 -0.18,0.15l-1.67,1.67c-0.06,0.05 -0.11,0.11 -0.15,0.18c-0.04,0.06 -0.08,0.13 -0.11,0.2c-0.03,0.07 -0.05,0.15 -0.07,0.22c-0.01,0.08 -0.02,0.15 -0.02,0.23c0,0.08 0.01,0.15 0.02,0.23c0.01,0.08 0.04,0.15 0.07,0.22c0.03,0.07 0.07,0.14 0.11,0.2c0.04,0.06 0.09,0.12 0.15,0.18l4.44,4.44l1.67,1.67c0.05,0.06 0.11,0.1 0.18,0.15c0.06,0.04 0.13,0.08 0.2,0.11c0.07,0.03 0.15,0.05 0.22,0.07c0.08,0.01 0.15,0.02 0.23,0.02c0.08,0 0.15,-0.01 0.23,-0.02c0.08,-0.01 0.15,-0.04 0.22,-0.07c0.07,-0.03 0.14,-0.07 0.2,-0.11c0.06,-0.04 0.12,-0.09 0.18,-0.15l1.67,-1.67l8.88,-8.87c0.06,-0.05 0.11,-0.11 0.15,-0.18c0.04,-0.06 0.08,-0.13 0.11,-0.2c0.03,-0.07 0.05,-0.15 0.07,-0.22c0.01,-0.08 0.02,-0.15 0.02,-0.23c0,-0.08 -0.01,-0.15 -0.02,-0.23c-0.01,-0.08 -0.04,-0.15 -0.07,-0.22c-0.03,-0.07 -0.07,-0.14 -0.11,-0.2c-0.04,-0.06 -0.09,-0.12 -0.15,-0.18" />
			</g>
		</g>
	</g>
</svg>