<svg xmlns="http://www.w3.org/2000/svg" width="95.805" height="50" viewBox="0 0 95.805 50">
  <g id="Group_319" data-name="Group 319" transform="translate(-1117 -20)">
    <path id="Path_222" data-name="Path 222" d="M70.932,44.94H47.077L41.53,50.521H65.385Z" transform="translate(1095.964 -2.763)" fill="#fff100"/>
    <path id="Path_223" data-name="Path 223" d="M72.7,21.214l20.81-6.524H81.065L69.246,18.4,63.8,23.874l-.518.528,4.1,3.41h13.25L75.9,23.874Z" transform="translate(1084.948 12.559)" fill="#ec1c24"/>
    <g id="Group_184" data-name="Group 184" transform="translate(1117 20)">
      <path id="Path_225" data-name="Path 225" d="M13.911,30.142l13.62-13.709,9.125-9.184,1.416-1.426L43.861,0h-7.92L30.152,5.823,0,36.168H35.99l5.991-6.025H13.911Z" fill="#fff"/>
    </g>
    <g id="Group_185" data-name="Group 185" transform="translate(1159.292 20)">
      <path id="Path_226" data-name="Path 226" d="M109.555,5.823,115.339,0H91.489L85.7,5.823h23.855Z" transform="translate(-85.7)" fill="#fff"/>
    </g>
    <g id="Group_186" data-name="Group 186" transform="translate(1157.219 20.074)">
      <path id="Path_227" data-name="Path 227" d="M128.939.54a11.011,11.011,0,0,0-2.9-.39c-.291,0-.582.015-.869.039h-7.743L111.657,5.9l-1.416,1.426-9.13,9.184L97.2,20.447l-1.791,1.8L89.86,27.835l-2.369,2.384L81.5,36.244h7.837l5.991-6.03L97.7,27.83l5.537-5.571-.01-.01h.025l1.791-1.8,3.913-3.938,6.07-6.109,3.055-3.074L119.493,5.9h6.484c.054,0,.1-.01.158-.01s.1,0,.158.01a5.306,5.306,0,0,1-.158,10.61H113.073l-3.913,3.938-1.791,1.8-2.083,2.092,3.435,3.489,2.349,2.384,5.942,6.03h8.207l-5.942-6.03-2.349-2.384-5.5-5.581h14.607A11.048,11.048,0,0,0,128.939.54Z" transform="translate(-81.5 -0.15)" fill="#fff"/>
    </g>
    <g id="Group_204" data-name="Group 204" transform="translate(1117.143 62.321)">
      <g id="Group_187" data-name="Group 187" transform="translate(0 1.367)">
        <path id="Path_229" data-name="Path 229" d="M.29,88.53h.839V93.9H4.045v.725H.29Z" transform="translate(-0.29 -88.53)" fill="#fff"/>
      </g>
      <g id="Group_188" data-name="Group 188" transform="translate(4.945 1.367)">
        <path id="Path_230" data-name="Path 230" d="M10.31,88.53H14.1l-.227.72H11.139v1.87h2.512v.725H11.139V93.9h2.749l.247.725H10.31V88.53Z" transform="translate(-10.31 -88.53)" fill="#fff"/>
      </g>
      <g id="Group_189" data-name="Group 189" transform="translate(10.146 1.367)">
        <path id="Path_231" data-name="Path 231" d="M20.85,88.53h.839v6.1H20.85Z" transform="translate(-20.85 -88.53)" fill="#fff"/>
      </g>
      <g id="Group_190" data-name="Group 190" transform="translate(12.51 1.224)">
        <path id="Path_232" data-name="Path 232" d="M30.827,93.357a2.414,2.414,0,0,1-2.31,1.337,2.871,2.871,0,0,1-2.877-3.079c0-2.013,1.16-3.375,2.857-3.375a2.233,2.233,0,0,1,2.3,1.52l-.642.548A1.649,1.649,0,0,0,28.547,89c-1.2,0-2.013.987-2.013,2.462,0,2.29,1.5,2.487,1.964,2.487a1.917,1.917,0,0,0,1.752-1.194Z" transform="translate(-25.64 -88.24)" fill="#fff"/>
      </g>
      <g id="Group_191" data-name="Group 191" transform="translate(19.093 1.367)">
        <path id="Path_233" data-name="Path 233" d="M38.98,88.53h.839v2.586h3.035V88.53h.839v6.1h-.839V91.866H39.819v2.764H38.98Z" transform="translate(-38.98 -88.53)" fill="#fff"/>
      </g>
      <g id="Group_192" data-name="Group 192" transform="translate(25.089 1.367)">
        <path id="Path_234" data-name="Path 234" d="M51.13,88.53h4.955v.735H54.022v5.359h-.829V89.27H51.13Z" transform="translate(-51.13 -88.53)" fill="#fff"/>
      </g>
      <g id="Group_193" data-name="Group 193" transform="translate(31.312 1.367)">
        <path id="Path_235" data-name="Path 235" d="M68.078,88.53h1.293v6.1h-.75V89.206l-1.648,5.418h-.819L64.49,89.206v5.418h-.75V88.53h1.3l1.52,4.964Z" transform="translate(-63.74 -88.53)" fill="#fff"/>
      </g>
      <g id="Group_194" data-name="Group 194" transform="translate(38.507 1.367)">
        <path id="Path_236" data-name="Path 236" d="M78.32,88.53h3.795l-.227.72H79.149v1.87h2.512v.725H79.149V93.9H81.9l.247.725H78.32Z" transform="translate(-78.32 -88.53)" fill="#fff"/>
      </g>
      <g id="Group_195" data-name="Group 195" transform="translate(43.234 1.367)">
        <path id="Path_237" data-name="Path 237" d="M87.9,88.53h4.955v.735H90.792v5.359h-.829V89.27H87.9Z" transform="translate(-87.9 -88.53)" fill="#fff"/>
      </g>
      <g id="Group_196" data-name="Group 196" transform="translate(48.223 1.367)">
        <path id="Path_238" data-name="Path 238" d="M100.68,88.53h.745l2.665,6.1h-.844l-.651-1.471H99.515l-.651,1.471H98.01Zm.375,1.091L99.836,92.4h2.428Z" transform="translate(-98.01 -88.53)" fill="#fff"/>
      </g>
      <g id="Group_197" data-name="Group 197" transform="translate(55.547 1.367)">
        <path id="Path_239" data-name="Path 239" d="M112.85,88.53h.839V93.9h2.917v.725H112.85Z" transform="translate(-112.85 -88.53)" fill="#fff"/>
      </g>
      <g id="Group_198" data-name="Group 198" transform="translate(60.566 1.367)">
        <path id="Path_240" data-name="Path 240" d="M123.02,88.53h.839V93.9h2.917v.725H123.02Z" transform="translate(-123.02 -88.53)" fill="#fff"/>
      </g>
      <g id="Group_199" data-name="Group 199" transform="translate(65.505 1.367)">
        <path id="Path_241" data-name="Path 241" d="M133.03,88.53h2.586a1.735,1.735,0,0,1,1.9,1.668,1.487,1.487,0,0,1-1.283,1.564l1.52,2.867h-.9l-1.471-2.739h-1.52v2.739h-.839Zm.839.711v1.93h1.6c.76,0,1.174-.34,1.174-.972s-.415-.957-1.244-.957Z" transform="translate(-133.03 -88.53)" fill="#fff"/>
      </g>
      <g id="Group_200" data-name="Group 200" transform="translate(71.225 0)">
        <path id="Path_242" data-name="Path 242" d="M147.29,87.127h.745l2.665,6.1h-.844l-.651-1.471h-3.079l-.651,1.471h-.854Zm.37,1.091L146.441,91h2.428ZM146.5,86.6V85.76h.77V86.6Zm1.54,0V85.76h.77V86.6Z" transform="translate(-144.62 -85.76)" fill="#fff"/>
      </g>
      <g id="Group_201" data-name="Group 201" transform="translate(78.538 1.367)">
        <path id="Path_243" data-name="Path 243" d="M159.44,88.53h2.275a2.542,2.542,0,0,1,1.92.676,3.257,3.257,0,0,1,.913,2.369c0,1.895-1.031,3.055-2.734,3.055H159.44Zm.834.745v4.6h1.515c1.165,0,1.87-.844,1.87-2.255a2.572,2.572,0,0,0-.661-1.9,1.709,1.709,0,0,0-1.278-.439Z" transform="translate(-159.44 -88.53)" fill="#fff"/>
      </g>
      <g id="Group_202" data-name="Group 202" transform="translate(85.082 1.367)">
        <path id="Path_244" data-name="Path 244" d="M172.7,88.53h3.795l-.227.72h-2.739v1.87h2.512v.725h-2.512V93.9h2.749l.247.725H172.7Z" transform="translate(-172.7 -88.53)" fill="#fff"/>
      </g>
      <g id="Group_203" data-name="Group 203" transform="translate(90.091 1.367)">
        <path id="Path_245" data-name="Path 245" d="M182.855,88.53h2.586a1.737,1.737,0,0,1,1.9,1.668,1.487,1.487,0,0,1-1.288,1.564l1.52,2.867h-.9l-1.471-2.739h-1.52v2.739h-.839v-6.1Zm.834.711v1.93h1.6c.76,0,1.174-.34,1.174-.972s-.415-.957-1.244-.957Z" transform="translate(-182.85 -88.53)" fill="#fff"/>
      </g>
    </g>
  </g>
</svg>
