<svg xmlns="http://www.w3.org/2000/svg" width="194.14" height="101.32" viewBox="0 0 194.14 101.32">
  <g id="Group_284" data-name="Group 284" transform="translate(-545 -136)">
    <path id="Path_198" data-name="Path 198" d="M101.11,44.94H52.77L41.53,56.25H89.87Z" transform="translate(545 136)" fill="#fff100"/>
    <path id="Path_199" data-name="Path 199" d="M82.37,27.91l42.17-13.22H99.32L75.37,22.2,64.33,33.3l-1.05,1.07,8.31,6.91H98.44L88.85,33.3Z" transform="translate(545 136)" fill="#ec1c24"/>
    <path id="Path_200" data-name="Path 200" d="M125.54,44.96l.02-.02h-.05Z" transform="translate(545 136)"/>
    <path id="Path_201" data-name="Path 201" d="M28.19,61.08,55.79,33.3,74.28,14.69l2.87-2.89L88.88,0H72.83L61.1,11.8,0,73.29H72.93L85.07,61.08H28.19Z" transform="translate(545 136)"/>
    <path id="Path_202" data-name="Path 202" d="M134.04,11.8,145.76,0H97.43L85.7,11.8h48.34Z" transform="translate(545 136)"/>
    <path id="Path_203" data-name="Path 203" d="M177.63.94a22.313,22.313,0,0,0-5.88-.79c-.59,0-1.18.03-1.76.08H154.3L142.61,11.8l-2.87,2.89L121.24,33.3l-7.93,7.98-3.63,3.65L98.44,56.25l-4.8,4.83L81.5,73.29H97.38l12.14-12.22,4.8-4.83,11.22-11.29-.02-.02h.05l3.63-3.65,7.93-7.98,12.3-12.38,6.19-6.23,2.87-2.89h13.14c.11,0,.21-.02.32-.02s.21.01.32.02a10.752,10.752,0,0,1-.32,21.5H145.48l-7.93,7.98-3.63,3.65-4.22,4.24,6.96,7.07,4.76,4.83,12.04,12.22h16.63L158.05,61.07l-4.76-4.83L142.15,44.93h29.6A22.388,22.388,0,0,0,177.63.94Z" transform="translate(545 136)"/>
    <path id="Path_204" data-name="Path 204" d="M171.94,11.78c-.11,0-.21.01-.32.02h.63C172.15,11.8,172.05,11.78,171.94,11.78Z" transform="translate(545 136)"/>
    <g id="Group_183" data-name="Group 183" transform="translate(545 136)">
      <path id="Path_205" data-name="Path 205" d="M.29,88.53h1.7V99.41H7.9v1.47H.29Z" fill="#231f20"/>
      <path id="Path_206" data-name="Path 206" d="M10.31,88.53H18l-.46,1.46H11.99v3.79h5.09v1.47H11.99v4.16h5.57l.5,1.47H10.31V88.53Z" fill="#231f20"/>
      <path id="Path_207" data-name="Path 207" d="M20.85,88.53h1.7v12.36h-1.7Z" fill="#231f20"/>
      <path id="Path_208" data-name="Path 208" d="M36.15,98.61a4.891,4.891,0,0,1-4.68,2.71c-5.43,0-5.83-5.17-5.83-6.24,0-4.08,2.35-6.84,5.79-6.84a4.525,4.525,0,0,1,4.66,3.08l-1.3,1.11a3.342,3.342,0,0,0-3.26-2.66c-2.43,0-4.08,2-4.08,4.99,0,4.64,3.03,5.04,3.98,5.04a3.885,3.885,0,0,0,3.55-2.42Z" fill="#231f20"/>
      <path id="Path_209" data-name="Path 209" d="M38.98,88.53h1.7v5.24h6.15V88.53h1.7v12.36h-1.7v-5.6H40.68v5.6h-1.7Z" fill="#231f20"/>
      <path id="Path_210" data-name="Path 210" d="M51.13,88.53H61.17v1.49H56.99v10.86H55.31V90.03H51.13Z" fill="#231f20"/>
      <path id="Path_211" data-name="Path 211" d="M72.53,88.53h2.62v12.36H73.63V89.9l-3.34,10.98H68.63L65.26,89.9v10.98H63.74V88.53h2.64l3.08,10.06Z" fill="#231f20"/>
      <path id="Path_212" data-name="Path 212" d="M78.32,88.53h7.69l-.46,1.46H80v3.79h5.09v1.47H80v4.16h5.57l.5,1.47H78.32Z" fill="#231f20"/>
      <path id="Path_213" data-name="Path 213" d="M87.9,88.53H97.94v1.49H93.76v10.86H92.08V90.03H87.9Z" fill="#231f20"/>
      <path id="Path_214" data-name="Path 214" d="M103.42,88.53h1.51l5.4,12.36h-1.71l-1.32-2.98h-6.24l-1.32,2.98H98.01Zm.76,2.21-2.47,5.64h4.92Z" fill="#231f20"/>
      <path id="Path_215" data-name="Path 215" d="M112.85,88.53h1.7V99.41h5.91v1.47h-7.61V88.53Z" fill="#231f20"/>
      <path id="Path_216" data-name="Path 216" d="M123.02,88.53h1.7V99.41h5.91v1.47h-7.61V88.53Z" fill="#231f20"/>
      <path id="Path_217" data-name="Path 217" d="M133.03,88.53h5.24c2.25,0,3.86,1.42,3.86,3.38,0,1.78-.89,2.69-2.6,3.17l3.08,5.81h-1.82l-2.98-5.55h-3.08v5.55h-1.7Zm1.7,1.44v3.91h3.24c1.54,0,2.38-.69,2.38-1.97s-.84-1.94-2.52-1.94Z" fill="#231f20"/>
      <path id="Path_218" data-name="Path 218" d="M150.03,88.53h1.51l5.4,12.36h-1.71l-1.32-2.98h-6.24l-1.32,2.98h-1.73Zm.75,2.21-2.47,5.64h4.92Zm-2.35-3.27V85.76h1.56v1.71Zm3.12,0V85.76h1.56v1.71Z" fill="#231f20"/>
      <path id="Path_219" data-name="Path 219" d="M159.44,88.53h4.61a5.151,5.151,0,0,1,3.89,1.37,6.6,6.6,0,0,1,1.85,4.8c0,3.84-2.09,6.19-5.54,6.19h-4.81V88.53Zm1.69,1.51v9.32h3.07c2.36,0,3.79-1.71,3.79-4.57a5.212,5.212,0,0,0-1.34-3.86,3.462,3.462,0,0,0-2.59-.89Z" fill="#231f20"/>
      <path id="Path_220" data-name="Path 220" d="M172.7,88.53h7.69l-.46,1.46h-5.55v3.79h5.09v1.47h-5.09v4.16h5.57l.5,1.47H172.7Z" fill="#231f20"/>
      <path id="Path_221" data-name="Path 221" d="M182.86,88.53h5.24c2.24,0,3.86,1.42,3.86,3.38,0,1.78-.89,2.69-2.61,3.17l3.08,5.81h-1.82l-2.98-5.55h-3.08v5.55h-1.7V88.53Zm1.69,1.44v3.91h3.24c1.54,0,2.38-.69,2.38-1.97s-.84-1.94-2.52-1.94Z" fill="#231f20"/>
    </g>
  </g>
</svg>
