<svg id="Group_40" data-name="Group 40" xmlns="http://www.w3.org/2000/svg" viewBox="0 0 195.12 79.806">
  <defs>
    <style>
      .cls-1, .cls-2 {
        fill: #fff;
      }

      .cls-2 {
        fill-rule: evenodd;
      }
    </style>
  </defs>
  <g id="Group_2" data-name="Group 2">
    <g id="Group_1" data-name="Group 1">
      <path id="Path_1" data-name="Path 1" class="cls-1" d="M38.438,17.461,26.016,0H0L13.711,17.461Z"/>
      <path id="Path_2" data-name="Path 2" class="cls-1" d="M48.666,78.465S65.658,78,74.565,78L48.549,42.136,74.916,7.8H49.6L43.51,16.12H54.643L39.056,36.98c-3.516,0-6.211,0-9.727-.117-2.227,0-2.93.7-2.93,2.93V71.434l7.5-13.477Z" transform="translate(4.538 1.341)"/>
    </g>
  </g>
  <path id="Path_3" data-name="Path 3" class="cls-2" d="M183.466,58.79H164.129v-.117c1.406-.7,2.813-1.406,4.219-2.227-2.461-3.516-4.8-6.914-7.383-10.43-.117.234-.234.352-.234.469-3.164,3.984-6.211,7.969-9.258,12.07a.644.644,0,0,1-.586.352H135.77a.886.886,0,0,1-.469-.117c1.406-.7,2.578-1.406,3.867-1.992a1.17,1.17,0,0,0,.586-.469c5.859-7.383,11.836-14.766,17.7-22.032,0-.117,0-.234.234-.352-1.523.82-2.93,1.641-4.453,2.344-3.984-5.391-7.969-10.781-12.07-16.055h-.117V42.383a32.183,32.183,0,0,1-.586,6.68,12.207,12.207,0,0,1-6.68,8.555,22.345,22.345,0,0,1-7.5,2.227c-.7.117-1.523.117-2.227.234h-3.633c-.234,0-.352-.117-.469-.117a24.2,24.2,0,0,1-7.149-1.406c-3.984-1.523-6.8-3.984-8.2-7.734a19.834,19.834,0,0,1-1.055-6.914V33.594c0-.234.117-.469.352-.469,1.172-.586,2.227-1.172,3.281-1.758a13.99,13.99,0,0,0,1.875-.938h-15.7V59.258H78c1.289-.82,2.578-1.406,3.75-2.109a.643.643,0,0,0,.469-.7V34.18c0-.234,0-.469.352-.586,1.758-.938,3.633-1.758,5.391-2.813.117-.117.234-.117.469-.352H67.8v-.117l.234-.234c.938-1.289,1.992-2.578,2.93-3.867,1.523-1.992,3.047-4.1,4.453-6.094h39.141V42.032a18.049,18.049,0,0,0,.7,5.039,5.623,5.623,0,0,0,4.219,3.984,12.754,12.754,0,0,0,3.633.352,6.346,6.346,0,0,0,5.625-3.75,15.556,15.556,0,0,0,.938-5.742V20H154.4c2.109,3.281,4.336,6.68,6.445,10.078,0-.117.117-.234.234-.352,1.992-3.047,4.1-6.328,6.094-9.492,0-.117,0-.117.117-.234H181a.431.431,0,0,0-.117.352c-4.453,5.859-8.789,11.836-13.242,17.578-.234.352-.234.469,0,.7,4.336,5.625,8.672,11.367,12.891,17.11a8.162,8.162,0,0,1,2.93,3.047Z" transform="translate(11.654 3.438)"/>
</svg>
