<svg xmlns="http://www.w3.org/2000/svg" xmlns:xlink="http://www.w3.org/1999/xlink" viewBox="0 0 33.658 33.658">
  <defs>
    <style>
      .cls-1 {
        fill: none;
      }

      .cls-2 {
        clip-path: url(#clip-path);
      }

      .cls-3 {
        fill: #fff;
      }
    </style>
    <clipPath id="clip-path">
      <path id="Path_30" data-name="Path 30" class="cls-1" d="M0,23.372H33.658V-10.286H0Z" transform="translate(0 10.286)"/>
    </clipPath>
  </defs>
  <g id="Group_2" data-name="Group 2" transform="translate(0 10.286)">
    <g id="Group_35" data-name="Group 35" class="cls-2" transform="translate(0 -10.286)">
      <g id="Group_34" data-name="Group 34" transform="translate(-0.001 0)">
        <path id="Path_29" data-name="Path 29" class="cls-3" d="M18.214,13.345a1.344,1.344,0,0,1-.985.416H11.617v5.612a1.419,1.419,0,0,1-1.4,1.4h-2.8a1.419,1.419,0,0,1-1.4-1.4V13.76H.4a1.351,1.351,0,0,1-.988-.416A1.356,1.356,0,0,1-1,12.36v-2.8a1.358,1.358,0,0,1,.416-.988A1.351,1.351,0,0,1,.4,8.152H6.009V2.543a1.351,1.351,0,0,1,.416-.988,1.364,1.364,0,0,1,.988-.416h2.8a1.356,1.356,0,0,1,.985.416,1.351,1.351,0,0,1,.416.988V8.152h5.612a1.419,1.419,0,0,1,1.4,1.4v2.8a1.344,1.344,0,0,1-.416.985m-.952-16.96A16.464,16.464,0,0,0,8.813-5.873,16.452,16.452,0,0,0,.367-3.615,16.765,16.765,0,0,0-5.758,2.51a16.452,16.452,0,0,0-2.258,8.446A16.464,16.464,0,0,0-5.758,19.4,16.756,16.756,0,0,0,.367,25.527a16.452,16.452,0,0,0,8.446,2.258,16.464,16.464,0,0,0,8.449-2.258A16.747,16.747,0,0,0,23.384,19.4a16.464,16.464,0,0,0,2.258-8.449A16.452,16.452,0,0,0,23.384,2.51a16.756,16.756,0,0,0-6.122-6.126" transform="translate(8.016 5.873)"/>
      </g>
    </g>
  </g>
</svg>
