<svg xmlns="http://www.w3.org/2000/svg" viewBox="0 0 30.023 30">
  <defs>
    <style>
      .cls-1 {
        fill: #fff;
      }
    </style>
  </defs>
  <path id="Path_5" data-name="Path 5" class="cls-1" d="M15.012,0A15,15,0,1,0,30.023,15,15.02,15.02,0,0,0,15.012,0Zm8.21,22.289a.916.916,0,0,1-.915.914H18.131V16.852h2.134l.328-2.484H18.131V12.8c0-.727.188-1.2,1.22-1.2h1.314V9.375c-.235-.023-1.009-.094-1.923-.094a2.983,2.983,0,0,0-3.19,3.281v1.828H13.417v2.484h2.134V23.2H7.717a.916.916,0,0,1-.915-.914V7.711A.916.916,0,0,1,7.717,6.8H22.33a.916.916,0,0,1,.915.914V22.289Z"/>
</svg>
