<svg id="Group_8" data-name="Group 8" xmlns="http://www.w3.org/2000/svg" viewBox="0 0 30.023 30">
  <defs>
    <style>
      .cls-1 {
        fill: #fff;
      }
    </style>
  </defs>
  <path id="Path_7" data-name="Path 7" class="cls-1" d="M53.437,56.669A3.234,3.234,0,1,0,50.2,53.434,3.242,3.242,0,0,0,53.437,56.669Z" transform="translate(-38.425 -38.434)"/>
  <path id="Path_8" data-name="Path 8" class="cls-1" d="M48.058,59.789a5.184,5.184,0,0,1-10.367,0,5.7,5.7,0,0,1,.164-1.289H36.4v7.1a.655.655,0,0,0,.657.656H48.691a.655.655,0,0,0,.657-.656V58.5H47.893A5.7,5.7,0,0,1,48.058,59.789Z" transform="translate(-27.862 -44.789)"/>
  <path id="Path_9" data-name="Path 9" class="cls-1" d="M15.012,0A15,15,0,1,0,30.023,15,15.02,15.02,0,0,0,15.012,0Zm8.4,21.469a1.941,1.941,0,0,1-1.947,1.945H8.538a1.941,1.941,0,0,1-1.947-1.945V8.531A1.941,1.941,0,0,1,8.538,6.586H21.462a1.941,1.941,0,0,1,1.947,1.945Z"/>
  <path id="Path_10" data-name="Path 10" class="cls-1" d="M80.3,36.4H78.357a.655.655,0,0,0-.657.656V39a.655.655,0,0,0,.657.656H80.3A.655.655,0,0,0,80.96,39V37.056A.671.671,0,0,0,80.3,36.4Z" transform="translate(-59.475 -27.869)"/>
</svg>
