<svg xmlns="http://www.w3.org/2000/svg" viewBox="0 0 30.023 30">
  <defs>
    <style>
      .cls-1 {
        fill: #fff;
      }
    </style>
  </defs>
  <path id="Path_6" data-name="Path 6" class="cls-1" d="M15.012,0A15,15,0,1,0,30.023,15,15.02,15.02,0,0,0,15.012,0ZM21.7,11.578v.445a9.8,9.8,0,0,1-15.082,8.25c.281.023.539.047.821.047a7.043,7.043,0,0,0,4.292-1.477,3.438,3.438,0,0,1-3.213-2.391,2.97,2.97,0,0,0,.657.07,4.078,4.078,0,0,0,.915-.117,3.467,3.467,0,0,1-2.815-3.4v-.047a3.21,3.21,0,0,0,1.572.422,3.434,3.434,0,0,1-1.525-2.859,3.372,3.372,0,0,1,.469-1.734A9.814,9.814,0,0,0,14.894,12.4a2.968,2.968,0,0,1-.094-.8,3.452,3.452,0,0,1,5.958-2.367,7.038,7.038,0,0,0,2.181-.844,3.4,3.4,0,0,1-1.525,1.9,6.8,6.8,0,0,0,1.97-.539A5.989,5.989,0,0,1,21.7,11.578Z"/>
</svg>
